# xmcd
#
# Track frame offsets: 
#        150
#        13072
#        29890
#        47442
#        65830
#        82530
#        98442
#        110332
#        123980
#        139080
#
# Disc length: 2093 seconds
#
# Revision: 1
# Processed by: cddbd v1.5.1PL0 Copyright (c) Steve Scherf et al.
# Submitted via: ExactAudioCopy v0.95a5
#
DISCID=7a082b0a
DTITLE=Emmylou Harris - Blue Kentucky Girl
DYEAR=1979
DGENRE=Country
TTITLE0=Sister's Coming Home (with Tanya Tucker)
TTITLE1=Beneath Still Waters
TTITLE2=Rough And Rocky
TTITLE3=Hickory Wind
TTITLE4=Save The Last Dance For Me
TTITLE5=Sorrow In The Wind
TTITLE6=They'll Never Take His Love From Me
TTITLE7=Everytime You Leave (with Don Everly and Ricky Skaggs)
TTITLE8=Blue Kentucky Girl
TTITLE9=Even Cowgirls Get The Blues
EXTD=(c)1979 WEA\nupc 075995662710\n(p)Brian Ahern for Happy Sack Prod
EXTD=uctions\n
EXTT0=Songwriter: Willie Nelson\r\n
EXTT1=Songwriter: Dallas Frazier\r\n
EXTT2=Songwriter: Charles Justice and Sheji Tabuchi\r\n
EXTT3=Songwriter: Gram Parsons and Bob Buchanon\r\n
EXTT4=Songwriter: Doc Pomus and Mort Shuman\r\n
EXTT5=Songwriter: Jean Ritchie\r\n
EXTT6=Songwriter: Leon Payne\r\n
EXTT7=Songwriter: Charles and Ira Louvin\r\n
EXTT8=Songwriter: John Mullins\r\n
EXTT9=Songwriter: Rodney Crowell\r\n
PLAYORDER=
